# xmcd
#
# Track frame offsets:
#	150
#	14114
#	29957
#	47807
#	65413
#	83539
#	101244
#	118655
#	138703
#	154877
#	171361
#	204705
#
# Disc length: 3296 seconds
#
# Revision: 285647094
# Processed by: cddbd v1.5.2PL0 Copyright (c) Steve Scherf et al.
# Submitted via: EZCDAudioConverter 8.5.0.1
#
DISCID=b70cde0c
DTITLE=Jack Ingram - Big Dreams and High Hopes
DYEAR=2009
DGENRE=Country
TTITLE0=Free
TTITLE1=Barefoot And Crazy
TTITLE2=That's A Man
TTITLE3=Seeing Stars
TTITLE4=Not Giving Up On Me
TTITLE5=Barbie Doll
TTITLE6=Big Dreams and High Hopes
TTITLE7=Heartache
TTITLE8=Man In Your Life
TTITLE9=King Of Wasted Time
TTITLE10=In The Corner
TTITLE11=Untitled
EXTD=
EXTT0=
EXTT1=
EXTT2=
EXTT3=
EXTT4=
EXTT5=
EXTT6=
EXTT7=
EXTT8=
EXTT9=
EXTT10=
EXTT11=
PLAYORDER=
